<?xml version="1.0" encoding="utf-8"?>
<!-- Generator: Adobe Illustrator 19.2.1, SVG Export Plug-In . SVG Version: 6.00 Build 0)  -->
<svg version="1.1" id="Layer_1" xmlns="http://www.w3.org/2000/svg" xmlns:xlink="http://www.w3.org/1999/xlink" x="0px" y="0px"
	 viewBox="0 0 165.8 99.8" style="enable-background:new 0 0 165.8 99.8;" xml:space="preserve">
<style type="text/css">
	.st0{fill:#FFFFFF;}
	.st1{fill:#5A5A5D;stroke:#434345;stroke-width:1.5;stroke-miterlimit:10;}
	.st2{fill:#FCDD7C;stroke:#434345;stroke-width:1.5;stroke-miterlimit:10;}
	.st3{fill:#EC5D5F;stroke:#434345;stroke-width:1.5;stroke-miterlimit:10;}
	.st4{fill:#327A98;stroke:#434345;stroke-width:1.5;stroke-miterlimit:10;}
	.st5{fill:none;stroke:#434345;stroke-width:1.5;stroke-linecap:round;stroke-linejoin:round;stroke-miterlimit:10;}
	.st6{fill:#434345;}
	.st7{fill:#EC5D5F;}
	.st8{fill:#AADFF2;stroke:#434345;stroke-width:1.5;stroke-linecap:round;stroke-linejoin:round;stroke-miterlimit:10;}
	.st9{fill:#24BCC1;stroke:#434345;stroke-width:1.5;stroke-miterlimit:10;}
	.st10{fill:#327A98;}
</style>
<g>
	<circle class="st0" cx="85.1" cy="40.8" r="35.7"/>
	
		<rect x="116.9" y="62.8" transform="matrix(0.8192 0.5736 -0.5736 0.8192 58.8334 -57.8011)" class="st1" width="8.3" height="3.3"/>
	<path class="st2" d="M163.5,90.9l-3.1,4.4c-1.6,2.3-4.8,2.9-7.1,1.3l-31.1-21.8c-2.3-1.6-2.9-4.8-1.3-7.1l3.1-4.4
		c1.6-2.3,4.8-2.9,7.1-1.3l31.1,21.8C164.6,85.4,165.2,88.6,163.5,90.9z"/>
	<path class="st3" d="M163.5,90.9l-3.1,4.4c-1.6,2.3-4.8,2.9-7.1,1.3l-3.4-2.4l8.9-12.8l3.4,2.4C164.6,85.4,165.2,88.6,163.5,90.9z"
		/>
	<path class="st4" d="M84.9,1.2c-22.5,0-40.7,18.2-40.7,40.7c0,22.5,18.2,40.7,40.7,40.7c22.5,0,40.7-18.2,40.7-40.7
		C125.6,19.4,107.4,1.2,84.9,1.2z M84.9,74.1c-17.8,0-32.2-14.4-32.2-32.2S67.1,9.8,84.9,9.8c17.8,0,32.2,14.4,32.2,32.1
		S102.6,74.1,84.9,74.1z"/>
	<g>
		<polyline class="st5" points="102,32.1 92.8,37.6 102,43 		"/>
		<polyline class="st5" points="67.8,32.1 77,37.6 67.8,43 		"/>
		<path class="st6" d="M92.9,58.7H77.1c-0.9,0-1.6-0.8-1.4-1.7c0.8-4.4,4.7-7.7,9.3-7.7c4.6,0,8.5,3.3,9.3,7.7
			C94.4,57.9,93.8,58.7,92.9,58.7z"/>
		<path class="st7" d="M89.4,57.6h-8.8c-0.5,0-0.9-0.3-0.8-0.6c0.4-1.7,2.6-2.9,5.2-2.9c2.6,0,4.7,1.3,5.2,2.9
			C90.2,57.3,89.9,57.6,89.4,57.6z"/>
	</g>
	<line class="st8" x1="51.4" y1="12.2" x2="20.4" y2="12.2"/>
	<line class="st8" x1="22.8" y1="28.2" x2="1.1" y2="28.2"/>
	<line class="st8" x1="43.2" y1="28.2" x2="28.6" y2="28.2"/>
	<line class="st8" x1="45.9" y1="20.2" x2="33.3" y2="20.2"/>
	<line class="st8" x1="142.6" y1="52.3" x2="128" y2="52.3"/>
	<line class="st8" x1="161.9" y1="52.3" x2="149.2" y2="52.3"/>
	<line class="st8" x1="143.4" y1="44.8" x2="130.6" y2="44.8"/>
	<line class="st8" x1="149.4" y1="36.9" x2="128.3" y2="36.9"/>
	<g>
		<path class="st9" d="M116.5,56.2c-0.5,1.6-1.7,3.1-4.5,3.2c-1,0-1.8-0.1-2.5-0.4c-1.8-0.7-2.7-2.1-3-3.7c-0.3-1.7,0.2-3.5,1.2-5
			c1.4-2,3.7-5.2,3.7-5.2s0,0,0,0l4,5.2C116.6,52.1,117.1,54.2,116.5,56.2z"/>
		<path class="st10" d="M115.8,55.7c-0.5,1.5-1.2,2.9-4.1,2.9c-0.9,0-1.7-0.1-2.3-0.3c7.7-1.7,2.2-11.3,1.9-11.8l3.5,4
			C115.9,52,116.4,54,115.8,55.7z"/>
	</g>
</g>
</svg>
