<svg width="24" height="24" xmlns="http://www.w3.org/2000/svg">

 <g>
  <title>background</title>
  <rect fill="none" id="canvas_background" height="402" width="582" y="-1" x="-1"/>
 </g>
 <g>
  <title>Layer 1</title>
  <g id="svg_1" fill-rule="evenodd" fill="none">
   <path id="svg_2" d="m0,0l24,0l0,24l-24,0l0,-24z"/>
   <g id="svg_3">
    <circle stroke="null" id="svg_4" r="10.593749" cy="12.093751" cx="12.062501" fill="#DEB8DC"/>
    <path stroke="#523951" id="svg_9" stroke-linejoin="round" stroke-linecap="round" d="m10.867112,1.570627a9.607985,9.722707 0 0 1 1.163194,-0.070625a10.468749,10.593749 0 1 1 -7.711978,3.437083"/>
    <path id="svg_5" stroke-linejoin="round" stroke-linecap="round" stroke="#523951" d="m9.99,12.78l1.5,0"/>
    <circle id="svg_6" r="1" cy="8.78" cx="8.05" fill="#523951"/>
    <circle id="svg_7" r="1" cy="9.29" cx="14.92" fill="#523951"/>
    <path id="svg_8" stroke-linejoin="round" stroke-linecap="round" stroke="#523951" d="m14.23,6.55a2.24,2.24 0 0 1 1.59,0a2.2,2.2 0 0 1 1.27,0.93m-11.09,-3.48a2.16,2.16 0 0 1 1.44,-0.64a2.2,2.2 0 0 1 1.56,0.35"/>
    <path id="svg_10" fill="#DEB8DC" d="m7.14,16.56l6,-1a1,1 0 0 1 1.15,0.83a1,1 0 0 1 -0.82,1.14l-2.47,0.41a0.82,0.82 0 0 1 0.93,0.7a0.85,0.85 0 0 1 -0.64,1c0.237,0.12 0.4,0.347 0.44,0.61a0.87,0.87 0 0 1 -0.55,0.95a0.83,0.83 0 0 1 0.19,0.58a0.92,0.92 0 0 1 -0.79,0.81l-0.29,0.06c-0.84,0.17 -1.42,0.28 -2.3,0.38a14.51,14.51 0 0 1 -2.63,-0.21a1.73,1.73 0 0 1 -1.28,-1.13c-0.57,-1.19 -0.89,-3.44 -0.18,-4.08c0.71,-0.64 0.58,-0.5 0.92,-1.26c0.34,-0.76 0.68,-1.66 1,-2.42c0.32,-0.76 0.37,-1.09 0.87,-1.28a1,1 0 0 1 1.23,0.58a4.33,4.33 0 0 1 -0.07,1.6c-0.13,1.06 -0.14,1.29 0,1.64"/>
    <path id="svg_11" stroke-linejoin="round" stroke-linecap="round" stroke="#523951" d="m13.14,15.56a1,1 0 0 1 1.15,0.83a1,1 0 0 1 -0.82,1.14l-2.47,0.41a0.82,0.82 0 0 1 0.93,0.7a0.85,0.85 0 0 1 -0.64,1c0.237,0.12 0.4,0.347 0.44,0.61a0.87,0.87 0 0 1 -0.55,0.95a0.83,0.83 0 0 1 0.19,0.58a0.92,0.92 0 0 1 -0.79,0.81l-0.29,0.06c-0.84,0.17 -1.42,0.28 -2.3,0.38a14.51,14.51 0 0 1 -2.63,-0.21a1.73,1.73 0 0 1 -1.28,-1.13c-0.57,-1.19 -0.89,-3.44 -0.18,-4.08c0.71,-0.64 0.58,-0.5 0.92,-1.26c0.34,-0.76 0.68,-1.66 1,-2.42c0.32,-0.76 0.37,-1.09 0.87,-1.28a1,1 0 0 1 1.23,0.58a4.33,4.33 0 0 1 -0.07,1.6c-0.13,1.06 -0.14,1.29 0,1.64l5.29,-0.91z"/>
   </g>
  </g>
 </g>
</svg>