<svg width="24" height="24" xmlns="http://www.w3.org/2000/svg">

 <g>
  <title>background</title>
  <rect fill="none" id="canvas_background" height="402" width="582" y="-1" x="-1"/>
 </g>
 <g>
  <title>Layer 1</title>
  <g id="svg_1" fill-rule="evenodd" fill="none">
   <path stroke="null" id="svg_3" fill="#1485BD" d="m12.91458,9.32102l-10.355286,0a2.442925,2.321587 0 0 0 -2.117201,2.579541a2.198632,2.089428 0 0 0 2.239348,1.934656l0.393582,0a1.872909,1.779883 0 0 0 -1.818622,1.792781a1.940768,1.844372 0 0 0 1.777906,1.831474a1.927196,1.831474 0 0 0 0.800736,3.276017a1.95434,1.85727 0 0 0 -0.203577,1.289771a2.062914,1.960451 0 0 0 2.049342,1.444543l5.537296,0a8.875959,8.435099 0 0 0 2.117201,-0.257954l3.474382,-0.967328l4.58727,0c2.415781,-0.090284 3.067228,-10.653505 0,-10.653505l-1.35718,0c-0.230721,0 -0.366439,-0.438522 -0.963598,-1.057612c-0.882167,-0.915737 -1.886481,-2.089428 -2.592214,-2.747211a17.290478,16.431677 0 0 1 -4.071541,-5.055901c-0.570016,-1.251077 -0.637875,-1.792781 -1.791478,-1.792781a1.872909,1.779883 0 0 0 -1.642188,1.870167c0,0.322443 0.176433,1.444543 0.244292,1.844372a14.413255,13.697363 0 0 0 2.388637,4.668969"/>
   <path stroke="#004B7C" id="svg_4" stroke-linejoin="round" stroke-linecap="round" d="m2.732233,9.712404a1.903513,1.817871 0 0 0 -2.106014,1.933905a2.160015,2.062832 0 0 0 2.227515,1.933905l0.391503,0a1.863013,1.779193 0 0 0 -1.809012,1.817871a1.930513,1.843656 0 0 0 1.768512,1.830764a1.917013,1.830764 0 0 0 0.796505,3.274746a1.944013,1.856549 0 0 0 -0.202501,1.28927a2.052014,1.959691 0 0 0 2.052014,1.456875l5.508038,0a8.829061,8.431827 0 0 0 2.092514,-0.270747l3.456024,-0.966953l4.563031,0c2.403016,-0.090249 3.051021,-10.649372 0,-10.649372l-1.350009,0c-0.229502,0 -0.364503,-0.438352 -0.958507,-1.057202c-0.877506,-0.915382 -1.876513,-2.088618 -2.578518,-2.746145a17.199118,16.425302 0 0 1 -4.050028,-5.053939c-0.567004,-1.250592 -0.634504,-1.817871 -1.782012,-1.817871a1.795512,1.714729 0 0 0 -1.633511,1.895227c0,0.322318 0.175501,1.443983 0.243002,1.843656a21.127645,20.177078 0 0 0 2.376016,5.286008l-9.004562,0z"/>
   <path id="svg_2" d="m0,0l24,0l0,24l-24,0l0,-24z"/>
  </g>
 </g>
</svg>