<svg width="24" height="24" xmlns="http://www.w3.org/2000/svg">

 <g>
  <title>background</title>
  <rect fill="none" id="canvas_background" height="402" width="582" y="-1" x="-1"/>
 </g>
 <g>
  <title>Layer 1</title>
  <g id="svg_1" fill-rule="evenodd" fill="none">
   <path stroke="#77280C" id="svg_4" stroke-linejoin="round" stroke-linecap="round" d="m11.327108,2.647704a6.292491,7.124984 0 0 0 -8.919872,10.054127l9.621587,10.818119l9.621587,-10.818119a6.247959,7.074561 0 0 0 0,-10.054127a6.328926,7.16624 0 0 0 -4.466683,-2.078057l0,0a6.315431,7.15096 0 0 0 -4.4262,2.108616l-0.715209,0.763991l-0.715209,-0.794551z"/>
   <path stroke="null" id="svg_3" fill="#DF704D" d="m11.35838,2.801838a6.31091,7.107774 0 0 0 -8.945982,10.029841l9.649751,10.715773l9.649751,-10.776744a6.30685,7.103201 0 0 0 -4.479758,-12.118121a6.333918,7.133687 0 0 0 -4.45269,2.149252l-0.717303,0.762146l-0.703769,-0.762146z"/>
   <path id="svg_2" d="m0.062499,0l24,0l0,24l-24,0l0,-24z"/>
  </g>
 </g>
</svg>